# xmcd CD database file
#
# Track frame offsets:
#	150
#	26420
#	56337
#	85205
#	123522
#	149097
#	180735
#	201207
#	233177
#
# Disc length: 3242 seconds
#
# Revision: 0
# Processed by: cddbd v1.5.1PL0 Copyright (c) Steve Scherf et al.
# Submitted via: CDex 1.51
#
DISCID=7c0ca809
DTITLE=Kosvanec Quartet - Just Sqeeze Me
DYEAR=1998
DGENRE=Jazz
TTITLE0=Kosvanec Quartet - Take the A train
TTITLE1=Kosvanec Quartet - Polkadots and Moonbeams
TTITLE2=Kosvanec Quartet - What is This Thing Called Love
TTITLE3=Kosvanec Quartet - Just Sqeeze Me
TTITLE4=Kosvanec Quartet - Bossa De Luxe
TTITLE5=Kosvanec Quartet - Anthropology
TTITLE6=Kosvanec Quartet - When I Fall in Love
TTITLE7=Kosvanec Quartet - The Days of Wine and Roses
TTITLE8=Kosvanec Quartet - Strike up the Band
EXTD=YEAR: 1998
EXTT0=
EXTT1=
EXTT2=
EXTT3=
EXTT4=
EXTT5=
EXTT6=
EXTT7=
EXTT8=
PLAYORDER=
